<svg width="21" height="42" viewBox="0 0 21 42" fill="none" xmlns="http://www.w3.org/2000/svg">
<path id="Vector" d="M0 32.3065C0 30.6921 0.405883 29.1917 1.19735 27.7862C1.98883 26.3808 3.105 25.2222 4.54589 24.2916V5.45089C4.54589 3.93148 5.09383 2.63998 6.21001 1.59538C7.32618 0.550787 8.70618 0 10.3297 0C11.9735 0 13.3535 0.531794 14.4697 1.57639C15.5859 2.63998 16.1541 3.91248 16.1541 5.43189V24.2726C17.595 25.2032 18.6909 26.3808 19.4824 27.7672C20.2738 29.1537 20.6594 30.6731 20.6594 32.2875C20.6594 34.0348 20.1927 35.6682 19.2794 37.1496C18.3662 38.631 17.108 39.8086 15.525 40.6632C13.9421 41.5179 12.2171 41.9547 10.3297 41.9547C8.46265 41.9547 6.73765 41.5179 5.15471 40.6632C3.57177 39.8086 2.31353 38.631 1.38 37.1496C0.446472 35.6682 0 34.0538 0 32.3065ZM3.57177 32.3065C3.57177 34.0728 4.24147 35.5922 5.56059 36.8457C6.87971 38.0992 8.48295 38.726 10.35 38.726C12.2374 38.726 13.8609 38.0992 15.2206 36.8267C16.5803 35.5542 17.2703 34.0538 17.2703 32.3255C17.2703 31.1479 16.9456 30.0464 16.2962 29.0397C15.6468 28.0331 14.7538 27.2544 13.6174 26.7037L13.0491 26.4378C12.8462 26.3618 12.7447 26.1719 12.7447 25.887V5.45089C12.7447 4.84312 12.5215 4.33032 12.0547 3.91248C11.588 3.51364 11.0197 3.30472 10.3297 3.30472C9.6803 3.30472 9.11207 3.51364 8.6453 3.91248C8.17854 4.31133 7.9553 4.82413 7.9553 5.45089V25.849C7.9553 26.1339 7.85383 26.3238 7.67118 26.3998L7.12324 26.6657C6.00706 27.2165 5.13442 27.9952 4.5053 29.0018C3.87618 30.0084 3.57177 31.091 3.57177 32.3065ZM5.15471 32.3065C5.15471 33.655 5.64177 34.8135 6.63618 35.7631C7.63059 36.7128 8.80765 37.1876 10.2079 37.1876C11.6082 37.1876 12.8056 36.7128 13.8406 35.7631C14.8756 34.8135 15.383 33.655 15.383 32.3255C15.383 31.1289 14.9365 30.0653 14.0638 29.1537C13.1912 28.2421 12.1156 27.6913 10.8574 27.5393V13.5607C10.8574 13.4468 10.7965 13.3138 10.6544 13.1999C10.5124 13.0669 10.3703 13.01 10.2079 13.01C10.0253 13.01 9.88324 13.0669 9.78177 13.1619C9.6803 13.2759 9.61942 13.3898 9.61942 13.5607V27.5013C8.38148 27.6723 7.32618 28.2041 6.45353 29.1157C5.58089 30.0464 5.15471 31.091 5.15471 32.3065Z" fill="#2C52B1" fill-opacity="0.96"/>
</svg>