<svg width="42" height="39" viewBox="0 0 42 39" fill="none" xmlns="http://www.w3.org/2000/svg">
<g id="Rainny">
<path id="Vector" d="M0.228882 17.9015C0.228882 15.7511 0.934871 13.8417 2.34685 12.1733C3.75883 10.505 5.56302 9.41124 7.72021 8.9478C8.32814 6.40815 9.7009 4.33194 11.8385 2.70063C13.9761 1.06932 16.447 0.253662 19.2318 0.253662C20.8202 0.253662 22.2714 0.494651 23.5461 0.995167C23.5461 1.0137 23.5461 1.0137 23.5657 1.03224C25.213 1.62545 26.6642 2.5894 27.8997 3.90557H27.9586C29.2921 5.25882 30.1746 6.87159 30.6452 8.76243H31.2532C33.3711 8.76243 35.2146 9.30002 36.803 10.3567V10.3381C37.8424 11.0055 38.7249 11.8211 39.4309 12.8036C40.1369 13.7861 40.6075 14.8613 40.8625 16.0292C40.9409 16.4185 40.9801 16.7336 41.0194 16.9931V17.1044C41.0194 17.1229 41.0194 17.2156 41.039 17.4195C41.0586 17.6234 41.0586 17.7717 41.0586 17.8644V17.92C41.0586 19.5513 40.6468 21.0714 39.8035 22.4617C38.9798 23.852 37.8424 24.9828 36.3912 25.817C34.9596 26.6512 33.3711 27.0961 31.6454 27.1517C31.3905 27.1517 31.2532 27.0405 31.2532 26.8366V24.3526C31.2532 24.1116 31.3905 24.0003 31.6454 24.0003C33.3319 23.9262 34.7439 23.2959 35.9205 22.1095C37.0972 20.9231 37.6855 19.5328 37.6855 17.92C37.6855 16.2702 37.058 14.8613 35.7833 13.6749C34.5282 12.4885 33.0181 11.8953 31.2532 11.8953H28.0958C27.8605 11.8953 27.7428 11.7841 27.7428 11.5801L27.586 10.4864C27.3898 8.63266 26.5662 7.03843 25.0954 5.68518C25.0758 5.66664 25.0758 5.64811 25.0562 5.62957C25.0366 5.61103 25.0169 5.59249 25.0169 5.57396C24.9973 5.55542 24.9777 5.53688 24.9385 5.53688C24.9385 5.49981 24.9189 5.48127 24.8993 5.48127C23.4677 4.25779 21.8008 3.55336 19.8789 3.40506C19.7416 3.38652 19.5259 3.38652 19.2121 3.38652C17.055 3.38652 15.1919 4.07241 13.6035 5.42566C12.015 6.7789 11.1129 8.46582 10.9168 10.4679L10.7599 11.5616C10.7011 11.7284 10.5442 11.8211 10.3284 11.8211L9.36752 11.8767C7.72021 12.0621 6.32784 12.7295 5.22964 13.8603C4.13143 14.9911 3.58233 16.3443 3.58233 17.9015V17.9756H3.64116C3.66077 18.8654 3.85688 19.6996 4.22949 20.4782C4.6217 21.2753 5.13158 21.9427 5.79835 22.4988C6.21018 22.8325 6.68084 23.1291 7.24955 23.3886V23.4071C8.03398 23.7594 8.81841 23.9633 9.62246 24.0003C9.83818 24.0003 9.95584 24.1116 9.95584 24.334V26.8181C9.95584 27.022 9.83818 27.1332 9.62246 27.1332C8.6027 27.0776 7.64177 26.8922 6.72006 26.5771V26.5956C5.09236 26.058 3.69999 25.1682 2.58218 23.9447C1.46436 22.7212 0.719151 21.2753 0.405378 19.6625V19.6069C0.385768 19.5884 0.385768 19.5699 0.385768 19.5328C0.268103 19.0508 0.228882 18.4947 0.228882 17.9015ZM11.0148 31.1929C11.0148 31.1373 11.0344 31.0632 11.054 30.9519C11.0737 30.8593 11.0933 30.7851 11.0933 30.7295L11.2698 29.6358C11.407 29.1909 11.662 28.8757 12.0738 28.6533C12.4856 28.4308 12.9171 28.3938 13.4073 28.505C13.8584 28.6347 14.1722 28.8943 14.4075 29.265C14.6232 29.6543 14.6624 30.0436 14.5448 30.4329L14.2702 31.5451C14.0741 32.3608 13.5838 32.7686 12.7798 32.7686C12.721 32.7686 12.6229 32.7501 12.5052 32.7316C12.3876 32.713 12.3091 32.6945 12.2307 32.6945C11.8189 32.5833 11.5247 32.3793 11.3286 32.0827C11.1129 31.8047 11.0148 31.5081 11.0148 31.1929ZM12.466 25.7429C12.466 25.298 12.6229 24.9458 12.9171 24.6492C13.2112 24.3526 13.6034 24.2228 14.0741 24.2228C14.5448 24.2228 14.9174 24.3711 15.2311 24.6492C15.5449 24.9272 15.6822 25.298 15.6822 25.7429C15.6822 26.1692 15.5253 26.5215 15.2311 26.8181C14.937 27.1147 14.5448 27.2444 14.0741 27.2444C13.6231 27.2444 13.2505 27.0961 12.9563 26.7995C12.6425 26.5029 12.466 26.1507 12.466 25.7429ZM15.6822 36.8469C15.6822 36.7728 15.7018 36.643 15.7606 36.4205L16.0156 35.3268C16.1529 34.9005 16.4274 34.5853 16.8196 34.3814C17.2315 34.159 17.6433 34.1219 18.0551 34.2516C18.5062 34.3258 18.8591 34.5668 19.0945 34.9375C19.3298 35.3083 19.3886 35.7346 19.2514 36.1981L18.9964 37.2918C18.8003 38.0518 18.2708 38.4226 17.4276 38.4226C17.2903 38.4226 17.1138 38.4041 16.9569 38.367C16.5255 38.2558 16.2117 38.0518 15.996 37.7552C15.7999 37.4586 15.6822 37.162 15.6822 36.8469ZM17.2315 31.4525C17.2315 31.0261 17.3883 30.6553 17.6825 30.3773C17.9963 30.0807 18.3689 29.9509 18.8395 29.9509C19.3102 29.9509 19.6828 30.0992 19.9966 30.3773C20.3103 30.6739 20.4476 31.0261 20.4476 31.4525C20.4476 31.8974 20.2907 32.2496 19.9966 32.5462C19.6828 32.8428 19.3102 32.9725 18.8395 32.9725C18.3885 32.9725 18.0159 32.8242 17.7021 32.5276C17.3883 32.231 17.2315 31.8788 17.2315 31.4525ZM18.4473 27.2444C18.4473 27.059 18.4669 26.8922 18.5062 26.7439L18.9572 25.0755C19.0945 24.6492 19.369 24.3155 19.7612 24.093C20.1731 23.8706 20.5849 23.815 21.0163 23.9447C21.487 24.0745 21.8204 24.3155 22.0557 24.6862C22.291 25.057 22.3303 25.4463 22.193 25.8541L21.6831 27.5225C21.5262 28.0415 21.2517 28.3752 20.8791 28.5606C20.5065 28.746 20.075 28.783 19.624 28.6718C19.2318 28.5977 18.9376 28.4123 18.7415 28.1157C18.5062 27.8191 18.4277 27.5225 18.4473 27.2444ZM23.8599 31.2115C23.8599 31.1559 23.8599 31.0632 23.8795 30.9705C23.8991 30.8778 23.8991 30.8036 23.8991 30.7666L24.0756 29.6728C24.2129 29.2279 24.4678 28.9128 24.8797 28.6904C25.2915 28.4679 25.7229 28.4308 26.2132 28.5421C26.6642 28.6718 26.9976 28.9313 27.2134 29.3021C27.4487 29.6914 27.4879 30.0807 27.3506 30.47L27.0761 31.5822C26.88 32.3979 26.3897 32.8057 25.5857 32.8057C25.5268 32.8057 25.4288 32.7872 25.3111 32.7686C25.1934 32.7501 25.0954 32.7316 25.0366 32.7316C24.6443 32.6203 24.3502 32.4164 24.1541 32.1198C23.9776 31.8232 23.8599 31.5266 23.8599 31.2115ZM25.3111 25.7614C25.3111 25.3165 25.468 24.9643 25.7622 24.6677C26.0759 24.3711 26.4485 24.2413 26.9192 24.2413C27.3898 24.2413 27.7625 24.3896 28.0762 24.6677C28.39 24.9643 28.5273 25.3165 28.5273 25.7614C28.5273 26.1878 28.3704 26.5585 28.0762 26.8366C27.7821 27.1147 27.4095 27.263 26.9388 27.263C26.4681 27.263 26.0955 27.1147 25.8014 26.8181C25.4876 26.54 25.3111 26.1878 25.3111 25.7614Z" fill="white"/>
</g>
</svg>
