<svg width="54" height="57" viewBox="0 0 54 57" fill="none" xmlns="http://www.w3.org/2000/svg">
<g id="Sunshine">
<path id="Vector" d="M0.272736 28.5099C0.272736 27.8862 0.471435 27.3405 0.893672 26.8988C1.31591 26.483 1.83749 26.2751 2.38392 26.2751H7.45076C8.02202 26.2751 8.49393 26.483 8.89133 26.9248C9.26389 27.3665 9.46259 27.8862 9.46259 28.5099C9.46259 29.1335 9.28872 29.6532 8.91616 30.095C8.5436 30.5368 8.04685 30.7446 7.47559 30.7446H2.40876C1.83749 30.7446 1.34075 30.5368 0.91851 30.095C0.496273 29.6532 0.272736 29.1335 0.272736 28.5099ZM7.37624 46.5179C7.37624 45.9202 7.57494 45.4005 7.9475 44.9328L11.5986 41.2168C11.9712 40.8011 12.4679 40.6192 13.064 40.6192C13.6601 40.6192 14.1569 40.827 14.5543 41.2168C14.9517 41.6066 15.1504 42.1003 15.1504 42.698C15.1504 43.3217 14.9517 43.8933 14.5543 44.3611L11.0273 48.051C10.009 48.8826 8.99068 48.8826 7.97234 48.051C7.57494 47.6353 7.37624 47.1156 7.37624 46.5179ZM7.37624 10.5539C7.37624 9.95619 7.57494 9.43648 7.9475 8.96873C8.44425 8.52698 8.96584 8.3191 9.5371 8.3191C10.0835 8.3191 10.5803 8.52698 11.0025 8.94275L14.5543 12.7626C14.9517 13.1524 15.1504 13.6721 15.1504 14.2958C15.1504 14.9194 14.9517 15.4391 14.5543 15.8549C14.1569 16.2707 13.6601 16.4786 13.064 16.4786C12.4679 16.4786 11.9712 16.2707 11.5986 15.8549L7.97234 12.139C7.57494 11.7232 7.37624 11.1775 7.37624 10.5539ZM13.7098 28.5099C13.7098 26.0932 14.281 23.8325 15.4484 21.7536C16.6158 19.6748 18.1805 18.0117 20.1924 16.7904C22.2042 15.5691 24.3402 14.9714 26.6501 14.9714C28.3887 14.9714 30.0528 15.3352 31.6673 16.0628C33.2569 16.7904 34.6477 17.7519 35.7903 18.9732C36.9576 20.1945 37.8766 21.6237 38.5472 23.2868C39.2178 24.9499 39.5656 26.7169 39.5656 28.5359C39.5656 30.9785 38.9943 33.2393 37.8269 35.3181C36.6596 37.3969 35.0948 39.034 33.1078 40.2554C31.1208 41.4767 28.96 42.0744 26.6253 42.0744C24.2905 42.0744 22.1297 41.4767 20.1427 40.2554C18.1557 39.034 16.5909 37.3969 15.4236 35.3181C14.3059 33.2133 13.7098 30.9525 13.7098 28.5099ZM17.9322 28.5099C17.9322 31.0565 18.7766 33.2133 20.4904 35.0063C22.1794 36.7993 24.2409 37.7088 26.6749 37.7088C29.109 37.7088 31.1705 36.7993 32.8843 35.0063C34.5981 33.2133 35.4674 31.0565 35.4674 28.5099C35.4674 26.0153 34.5981 23.8845 32.8843 22.0914C31.1705 20.3244 29.109 19.4409 26.6749 19.4409C24.2657 19.4409 22.2042 20.3244 20.5152 22.0914C18.7766 23.8845 17.9322 26.0153 17.9322 28.5099ZM24.5389 48.7267C24.5389 48.103 24.7376 47.5833 25.1598 47.1675C25.5821 46.7518 26.0788 46.5439 26.6501 46.5439C27.2462 46.5439 27.7678 46.7518 28.1652 47.1675C28.5626 47.5833 28.7613 48.103 28.7613 48.7267V53.8978C28.7613 54.5214 28.5626 55.0671 28.1403 55.5089C27.7181 55.9506 27.2214 56.1585 26.6501 56.1585C26.0788 56.1585 25.5572 55.9506 25.1598 55.5089C24.7376 55.0671 24.5389 54.5214 24.5389 53.8978V48.7267ZM24.5389 8.44902V3.14797C24.5389 2.5503 24.7376 2.03059 25.1598 1.58883C25.5821 1.14708 26.0788 0.913208 26.6749 0.913208C27.271 0.913208 27.7429 1.12109 28.1652 1.56285C28.5874 2.0046 28.7861 2.52431 28.7861 3.12198V8.44902C28.7861 9.04669 28.5874 9.54042 28.1652 9.95619C27.7429 10.372 27.2462 10.5539 26.6749 10.5539C26.1037 10.5539 25.5821 10.346 25.1847 9.95619C24.7873 9.5664 24.5389 9.04669 24.5389 8.44902ZM38.2492 42.698C38.2492 42.1003 38.4479 41.6066 38.8204 41.2428C39.193 40.827 39.6649 40.6451 40.2113 40.6451C40.8074 40.6451 41.3042 40.853 41.7016 41.2428L45.3278 44.9588C45.7252 45.4005 45.9239 45.9462 45.9239 46.5439C45.9239 47.1415 45.7252 47.6613 45.3278 48.077C44.3343 48.8826 43.3408 48.8826 42.3474 48.077L38.8204 44.3871C38.4479 43.9193 38.2492 43.3736 38.2492 42.698ZM38.2492 14.3218C38.2492 13.6721 38.4479 13.1524 38.8204 12.7886L42.3474 8.96873C42.7696 8.55297 43.2663 8.34508 43.8128 8.34508C44.4089 8.34508 44.9056 8.55297 45.303 8.99472C45.7252 9.43648 45.9239 9.95619 45.9239 10.5539C45.9239 11.2035 45.7252 11.7492 45.3278 12.165L41.7016 15.8809C41.2545 16.2967 40.7578 16.5046 40.2113 16.5046C39.6401 16.5046 39.193 16.2967 38.8204 15.8809C38.4479 15.4651 38.2492 14.9454 38.2492 14.3218ZM43.8624 28.5099C43.8624 27.8862 44.0611 27.3665 44.4585 26.8988C44.8559 26.483 45.3278 26.2751 45.8743 26.2751H50.8914C51.4627 26.2751 51.9594 26.509 52.3817 26.9508C52.8039 27.3925 53.0275 27.9122 53.0275 28.5099C53.0275 29.1076 52.8039 29.6273 52.3817 30.069C51.9594 30.5108 51.4627 30.7187 50.8914 30.7187H45.8743C45.303 30.7187 44.8063 30.5108 44.4337 30.069C44.0611 29.6273 43.8624 29.1335 43.8624 28.5099Z" fill="#EEBE43"/>
</g>
</svg>
