<svg width="22" height="43" viewBox="0 0 22 43" fill="none" xmlns="http://www.w3.org/2000/svg">
<g id="Temperature">
<path id="Vector" d="M0.757202 32.7139C0.757202 31.0995 1.16309 29.5991 1.95456 28.1936C2.74603 26.7882 3.8622 25.6296 5.30309 24.699V5.85827C5.30309 4.33886 5.85103 3.04736 6.96721 2.00276C8.08338 0.958166 9.46339 0.407379 11.0869 0.407379C12.7307 0.407379 14.1107 0.939173 15.2269 1.98377C16.3431 3.04736 16.9113 4.31986 16.9113 5.83927V24.68C18.3522 25.6106 19.4481 26.7882 20.2396 28.1746C21.031 29.5611 21.4166 31.0805 21.4166 32.6949C21.4166 34.4422 20.9499 36.0756 20.0366 37.557C19.1234 39.0384 17.8652 40.216 16.2822 41.0706C14.6993 41.9253 12.9743 42.3621 11.0869 42.3621C9.21986 42.3621 7.49485 41.9253 5.91191 41.0706C4.32897 40.216 3.07073 39.0384 2.1372 37.557C1.20367 36.0756 0.757202 34.4612 0.757202 32.7139ZM4.32897 32.7139C4.32897 34.4802 4.99868 35.9996 6.31779 37.2531C7.63691 38.5066 9.24015 39.1334 11.1072 39.1334C12.9946 39.1334 14.6181 38.5066 15.9778 37.2341C17.3375 35.9616 18.0275 34.4612 18.0275 32.7329C18.0275 31.5553 17.7028 30.4537 17.0534 29.4471C16.404 28.4405 15.511 27.6618 14.3746 27.111L13.8063 26.8451C13.6034 26.7692 13.5019 26.5792 13.5019 26.2943V5.85827C13.5019 5.2505 13.2787 4.7377 12.8119 4.31986C12.3452 3.92102 11.7769 3.7121 11.0869 3.7121C10.4375 3.7121 9.86927 3.92102 9.4025 4.31986C8.93574 4.71871 8.7125 5.23151 8.7125 5.85827V26.2564C8.7125 26.5413 8.61103 26.7312 8.42838 26.8071L7.88044 27.073C6.76427 27.6238 5.89162 28.4025 5.2625 29.4091C4.63338 30.4157 4.32897 31.4983 4.32897 32.7139ZM5.91191 32.7139C5.91191 34.0623 6.39897 35.2209 7.39338 36.1705C8.3878 37.1202 9.56485 37.595 10.9651 37.595C12.3654 37.595 13.5628 37.1202 14.5978 36.1705C15.6328 35.2209 16.1402 34.0623 16.1402 32.7329C16.1402 31.5363 15.6937 30.4727 14.821 29.5611C13.9484 28.6494 12.8728 28.0986 11.6146 27.9467V13.9681C11.6146 13.8542 11.5537 13.7212 11.4116 13.6073C11.2696 13.4743 11.1275 13.4173 10.9651 13.4173C10.7825 13.4173 10.6404 13.4743 10.539 13.5693C10.4375 13.6832 10.3766 13.7972 10.3766 13.9681V27.9087C9.13868 28.0797 8.08338 28.6114 7.21074 29.5231C6.33809 30.4537 5.91191 31.4983 5.91191 32.7139Z" fill="#AB2E2E" fill-opacity="0.96"/>
</g>
</svg>
