<svg width="45" height="25" viewBox="3 0 11 19" fill="none" xmlns="http://www.w3.org/2000/svg">
<g id="&#240;&#159;&#166;&#134; icon &#34;search&#34;">
<path id="Vector" d="M15.5463 15.2105L12.8587 11.9963L10.7915 10.9749C11.4798 9.80428 11.8486 8.40772 11.8473 6.97663C11.8473 3.12969 9.2303 0 6.0136 0C2.79689 0 0.179932 3.12969 0.179932 6.97663C0.179932 10.8236 2.79689 13.9533 6.0136 13.9533C7.22065 13.9549 8.39807 13.5063 9.38184 12.6698L10.2337 15.1354L12.9212 18.3498C13.0935 18.5559 13.2982 18.7194 13.5234 18.831C13.7486 18.9426 13.9899 19 14.2337 19C14.4775 19 14.7188 18.9426 14.944 18.831C15.1693 18.7195 15.3739 18.556 15.5463 18.3499C15.7186 18.1437 15.8554 17.899 15.9486 17.6297C16.0419 17.3604 16.09 17.0717 16.09 16.7802C16.09 16.4887 16.042 16.2 15.9487 15.9307C15.8554 15.6613 15.7187 15.4166 15.5463 15.2105ZM1.2406 6.97663C1.2406 3.82922 3.38182 1.26848 6.0136 1.26848C8.64538 1.26848 10.7866 3.82922 10.7866 6.97663C10.7866 10.124 8.64538 12.6848 6.0136 12.6848C3.38182 12.6848 1.2406 10.124 1.2406 6.97663ZM14.7963 17.4528C14.647 17.631 14.4447 17.731 14.2338 17.731C14.0229 17.731 13.8206 17.631 13.6712 17.4528L11.1332 14.4175L10.3412 12.1249L12.2583 13.0721L14.7963 16.1074C14.9453 16.286 15.0289 16.5279 15.0289 16.7801C15.0289 17.0324 14.9452 17.2743 14.7963 17.4528Z" fill="black"/>
</g>
</svg>
